<svg width="119" height="143" viewBox="0 0 119 143" fill="none" xmlns="http://www.w3.org/2000/svg">
<path d="M19.1261 0.0692139C8.87487 0.0692139 0.491943 8.45214 0.491943 18.7033V125.595C0.491943 135.458 9.28734 142.931 19.1261 142.931H118.508V136.719H19.1261C12.4173 136.719 6.70332 131.685 6.70332 125.595C6.70332 119.505 12.296 114.98 19.1261 114.98H118.508V0.0692139H19.1261ZM19.1261 6.28059H112.297V108.768H19.1261C14.4918 108.768 10.1002 110.442 6.70332 113.172V18.7033C6.70332 11.8126 12.2353 6.28059 19.1261 6.28059ZM41.7515 34.2318L25.3374 82.1273V83.9227H31.5488V83.1463L34.4725 74.6057H56.5763L59.5 83.1463V83.9227H65.7114V82.1273L49.2973 34.2318H41.7515ZM45.5244 42.3842L54.4411 68.3943H36.6077L45.5244 42.3842Z" fill="black"/>
<path d="M70.4179 59.38C70.9879 59.29 71.5429 59.215 72.0829 59.155C72.6529 59.065 73.2079 59.005 73.7479 58.975C74.3179 58.945 74.8429 58.93 75.3229 58.93C75.9829 58.93 76.5979 59.14 77.1679 59.56C77.7379 59.98 78.1879 60.52 78.5179 61.18C78.8479 61.84 78.9379 62.545 78.7879 63.295C78.6079 64.435 78.3679 65.515 78.0679 66.535C77.7679 67.525 77.4379 68.5 77.0779 69.46C76.7179 70.39 76.3729 71.32 76.0429 72.25C75.7129 73.18 75.4429 74.125 75.2329 75.085C75.0229 75.925 74.8879 76.585 74.8279 77.065C74.7979 77.515 74.8129 77.92 74.8729 78.28C75.0229 78.4 75.2029 78.49 75.4129 78.55C75.6529 78.61 75.9079 78.64 76.1779 78.64C76.6579 78.64 77.0779 78.55 77.4379 78.37C77.7979 78.19 78.1879 77.905 78.6079 77.515H78.8779C78.9679 77.965 78.9979 78.46 78.9679 79C78.9379 79.51 78.8479 80.065 78.6979 80.665C78.6079 81.145 78.4579 81.58 78.2479 81.97C78.0679 82.33 77.8279 82.66 77.5279 82.96C77.2879 83.2 76.9879 83.395 76.6279 83.545C76.2979 83.695 75.9229 83.815 75.5029 83.905C75.1129 83.995 74.6479 84.04 74.1079 84.04C73.4179 84.04 72.7729 83.89 72.1729 83.59C71.5729 83.32 71.0479 82.915 70.5979 82.375C70.1479 81.805 69.8179 81.085 69.6079 80.215C69.4279 79.345 69.4129 78.325 69.5629 77.155C69.7129 75.955 69.9379 74.815 70.2379 73.735C70.5379 72.655 70.8679 71.62 71.2279 70.63C71.5879 69.64 71.9329 68.65 72.2629 67.66C72.6229 66.64 72.9079 65.605 73.1179 64.555L72.9379 64.42C72.6379 64.57 72.3529 64.705 72.0829 64.825C71.8129 64.915 71.5429 64.99 71.2729 65.05C71.0329 65.11 70.7779 65.14 70.5079 65.14C70.0279 65.14 69.6829 64.855 69.4729 64.285C69.2629 63.685 69.3079 62.755 69.6079 61.495C69.6979 61.135 69.8029 60.79 69.9229 60.46C70.0429 60.13 70.2079 59.77 70.4179 59.38ZM75.6829 49.3C75.9529 49.24 76.2229 49.195 76.4929 49.165C76.7629 49.135 77.0479 49.12 77.3479 49.12C77.6479 49.09 77.9329 49.075 78.2029 49.075C78.4729 49.045 78.7279 49.03 78.9679 49.03C80.4379 49.03 81.4579 49.39 82.0279 50.11C82.5979 50.8 82.7329 51.79 82.4329 53.08L81.9379 55.06C81.6679 55.09 81.3979 55.135 81.1279 55.195C80.8579 55.225 80.5729 55.255 80.2729 55.285C80.0029 55.285 79.7329 55.285 79.4629 55.285C79.1929 55.285 78.9379 55.285 78.6979 55.285C77.1379 55.285 76.0579 54.955 75.4579 54.295C74.8879 53.635 74.7979 52.585 75.1879 51.145L75.6829 49.3Z" fill="black"/>
</svg>
