<svg width="241" height="180" viewBox="0 0 241 180" fill="none" xmlns="http://www.w3.org/2000/svg">
<path d="M80.1261 0.0692139C69.8749 0.0692139 61.4919 8.45214 61.4919 18.7033V125.595C61.4919 135.458 70.2873 142.931 80.1261 142.931H179.508V136.719H80.1261C73.4173 136.719 67.7033 131.685 67.7033 125.595C67.7033 119.505 73.296 114.98 80.1261 114.98H179.508V0.0692139H80.1261ZM80.1261 6.28059H173.297V108.768H80.1261C75.4918 108.768 71.1002 110.442 67.7033 113.172V18.7033C67.7033 11.8126 73.2353 6.28059 80.1261 6.28059ZM102.751 34.2318L86.3374 82.1273V83.9227H92.5488V83.1463L95.4725 74.6057H117.576L120.5 83.1463V83.9227H126.711V82.1273L110.297 34.2318H102.751ZM106.524 42.3842L115.441 68.3943H97.6077L106.524 42.3842Z" fill="black"/>
<path d="M131.418 59.38C131.988 59.29 132.543 59.215 133.083 59.155C133.653 59.065 134.208 59.005 134.748 58.975C135.318 58.945 135.843 58.93 136.323 58.93C136.983 58.93 137.598 59.14 138.168 59.56C138.738 59.98 139.188 60.52 139.518 61.18C139.848 61.84 139.938 62.545 139.788 63.295C139.608 64.435 139.368 65.515 139.068 66.535C138.768 67.525 138.438 68.5 138.078 69.46C137.718 70.39 137.373 71.32 137.043 72.25C136.713 73.18 136.443 74.125 136.233 75.085C136.023 75.925 135.888 76.585 135.828 77.065C135.798 77.515 135.813 77.92 135.873 78.28C136.023 78.4 136.203 78.49 136.413 78.55C136.653 78.61 136.908 78.64 137.178 78.64C137.658 78.64 138.078 78.55 138.438 78.37C138.798 78.19 139.188 77.905 139.608 77.515H139.878C139.968 77.965 139.998 78.46 139.968 79C139.938 79.51 139.848 80.065 139.698 80.665C139.608 81.145 139.458 81.58 139.248 81.97C139.068 82.33 138.828 82.66 138.528 82.96C138.288 83.2 137.988 83.395 137.628 83.545C137.298 83.695 136.923 83.815 136.503 83.905C136.113 83.995 135.648 84.04 135.108 84.04C134.418 84.04 133.773 83.89 133.173 83.59C132.573 83.32 132.048 82.915 131.598 82.375C131.148 81.805 130.818 81.085 130.608 80.215C130.428 79.345 130.413 78.325 130.563 77.155C130.713 75.955 130.938 74.815 131.238 73.735C131.538 72.655 131.868 71.62 132.228 70.63C132.588 69.64 132.933 68.65 133.263 67.66C133.623 66.64 133.908 65.605 134.118 64.555L133.938 64.42C133.638 64.57 133.353 64.705 133.083 64.825C132.813 64.915 132.543 64.99 132.273 65.05C132.033 65.11 131.778 65.14 131.508 65.14C131.028 65.14 130.683 64.855 130.473 64.285C130.263 63.685 130.308 62.755 130.608 61.495C130.698 61.135 130.803 60.79 130.923 60.46C131.043 60.13 131.208 59.77 131.418 59.38ZM136.683 49.3C136.953 49.24 137.223 49.195 137.493 49.165C137.763 49.135 138.048 49.12 138.348 49.12C138.648 49.09 138.933 49.075 139.203 49.075C139.473 49.045 139.728 49.03 139.968 49.03C141.438 49.03 142.458 49.39 143.028 50.11C143.598 50.8 143.733 51.79 143.433 53.08L142.938 55.06C142.668 55.09 142.398 55.135 142.128 55.195C141.858 55.225 141.573 55.255 141.273 55.285C141.003 55.285 140.733 55.285 140.463 55.285C140.193 55.285 139.938 55.285 139.698 55.285C138.138 55.285 137.058 54.955 136.458 54.295C135.888 53.635 135.798 52.585 136.188 51.145L136.683 49.3Z" fill="black"/>
<path d="M13.3703 179C13.317 179 13.2636 178.987 13.2103 178.96C13.157 178.933 13.117 178.907 13.0903 178.88C13.0636 178.827 13.037 178.773 13.0103 178.72C13.0103 178.667 13.0236 178.613 13.0503 178.56C13.5303 176.587 14.0103 174.627 14.4903 172.68C14.997 170.707 15.4903 168.747 15.9703 166.8C16.477 164.827 16.9703 162.853 17.4503 160.88C17.957 158.907 18.4503 156.947 18.9303 155C19.0903 154.333 19.2503 153.667 19.4103 153C19.597 152.333 19.7703 151.667 19.9303 151C20.7303 151 21.517 151 22.2903 151C23.0636 151 23.837 151 24.6103 151C24.717 151 24.797 151.027 24.8503 151.08C24.9036 151.107 24.9303 151.16 24.9303 151.24C24.957 151.293 24.957 151.36 24.9303 151.44C24.4503 153.36 23.9703 155.293 23.4903 157.24C23.0103 159.16 22.517 161.093 22.0103 163.04C21.5303 164.96 21.0503 166.893 20.5703 168.84C20.0903 170.76 19.6103 172.68 19.1303 174.6H28.5703C29.0503 174.6 29.4503 174.733 29.7703 175C30.117 175.24 30.397 175.573 30.6103 176C30.8236 176.4 30.957 176.867 31.0103 177.4C31.0636 177.907 31.0636 178.44 31.0103 179H13.3703ZM28.6103 170.56C29.0903 170.56 29.5436 170.56 29.9703 170.56C30.4236 170.56 30.877 170.56 31.3303 170.56C31.7836 170.56 32.2503 170.56 32.7303 170.56C32.837 170.56 32.9036 170.587 32.9303 170.64C32.9836 170.667 33.0236 170.72 33.0503 170.8C33.077 170.853 33.077 170.92 33.0503 171C32.917 171.507 32.757 172.107 32.5703 172.8C32.4103 173.493 32.2236 174.227 32.0103 175C31.8236 175.773 31.637 176.507 31.4503 177.2C31.2903 177.893 31.1436 178.493 31.0103 179C29.757 178.893 28.837 178.72 28.2503 178.48C27.6636 178.24 27.317 177.867 27.2103 177.36C27.1036 176.853 27.1703 176.147 27.4103 175.24C27.517 174.813 27.637 174.32 27.7703 173.76C27.9303 173.173 28.077 172.6 28.2103 172.04C28.3703 171.453 28.5036 170.96 28.6103 170.56ZM51.2347 157.12C52.648 157.12 53.8747 157.32 54.9147 157.72C55.9814 158.093 56.848 158.627 57.5147 159.32C58.1814 159.987 58.608 160.773 58.7947 161.68C59.008 162.56 58.9814 163.507 58.7147 164.52L58.5147 165.16C58.1947 166.413 57.6747 167.427 56.9547 168.2C56.2347 168.973 55.3147 169.547 54.1947 169.92C53.0747 170.267 51.7147 170.44 50.1147 170.44C49.5547 170.44 48.9014 170.44 48.1547 170.44C47.408 170.44 46.608 170.44 45.7547 170.44C44.928 170.44 44.048 170.44 43.1147 170.44L41.0347 170.68L41.5947 167.36C42.7147 167.36 43.7547 167.36 44.7147 167.36C45.6747 167.36 46.5947 167.36 47.4747 167.36C48.3814 167.36 49.248 167.36 50.0747 167.36C51.088 167.36 51.9414 167.16 52.6347 166.76C53.328 166.333 53.7814 165.653 53.9947 164.72C54.128 164.133 54.1414 163.613 54.0347 163.16C53.9547 162.707 53.7547 162.307 53.4347 161.96C53.1414 161.693 52.7547 161.48 52.2747 161.32C51.8214 161.133 51.248 161.04 50.5547 161.04C49.5947 161.04 48.7414 161.2 47.9947 161.52C47.248 161.84 46.608 162.36 46.0747 163.08C45.5414 163.773 45.1414 164.68 44.8747 165.8L43.6347 170.68C43.4214 171.453 43.3414 172.133 43.3947 172.72C43.4747 173.28 43.6747 173.76 43.9947 174.16C44.368 174.587 44.9014 174.893 45.5947 175.08C46.288 175.267 47.168 175.36 48.2347 175.36C49.168 175.36 50.008 175.32 50.7547 175.24C51.5014 175.133 52.2214 175 52.9147 174.84C53.608 174.653 54.3014 174.413 54.9947 174.12H55.7147C55.5547 174.707 55.3947 175.307 55.2347 175.92C55.1014 176.507 54.9547 177.093 54.7947 177.68C54.768 177.76 54.7414 177.827 54.7147 177.88C54.688 177.933 54.648 177.987 54.5947 178.04C54.328 178.28 53.8747 178.52 53.2347 178.76C52.6214 178.973 51.848 179.133 50.9147 179.24C49.9814 179.373 48.928 179.44 47.7547 179.44C46.0214 179.44 44.5147 179.227 43.2347 178.8C41.9814 178.347 40.968 177.72 40.1947 176.92C39.4214 176.093 38.928 175.107 38.7147 173.96C38.5014 172.787 38.5814 171.493 38.9547 170.08L40.0747 165.6C40.4214 164.187 40.928 162.947 41.5947 161.88C42.288 160.813 43.1147 159.933 44.0747 159.24C45.0347 158.52 46.1147 157.987 47.3147 157.64C48.5147 157.293 49.8214 157.12 51.2347 157.12ZM65.6991 157.56C66.2057 157.56 66.7791 157.56 67.4191 157.56C68.0591 157.56 68.6857 157.56 69.2991 157.56C69.9391 157.56 70.4857 157.56 70.9391 157.56C71.0457 157.56 71.1391 157.573 71.2191 157.6C71.2991 157.627 71.3657 157.68 71.4191 157.76C71.4991 157.813 71.5524 157.907 71.5791 158.04C71.9791 159.32 72.3924 160.693 72.8191 162.16C73.2724 163.6 73.7124 165.04 74.1391 166.48C74.5924 167.92 75.0191 169.293 75.4191 170.6C75.8191 171.907 76.1791 173.08 76.4991 174.12C76.6057 174.387 76.7524 174.573 76.9391 174.68C77.1257 174.787 77.3791 174.84 77.6991 174.84C77.9657 174.84 78.2057 174.84 78.4191 174.84C78.6591 174.84 78.8857 174.84 79.0991 174.84C79.3124 174.84 79.5524 174.84 79.8191 174.84H80.3791C80.3524 174.92 80.3124 175.08 80.2591 175.32C80.2057 175.56 80.1391 175.827 80.0591 176.12C79.9791 176.413 79.8991 176.707 79.8191 177C79.7391 177.293 79.6724 177.56 79.6191 177.8C79.5657 178.013 79.5257 178.173 79.4991 178.28C79.4457 178.547 79.3524 178.733 79.2191 178.84C79.1124 178.947 78.9257 179 78.6591 179C78.4724 179 78.2324 179 77.9391 179C77.6724 179 77.4057 179 77.1391 179C76.8724 179 76.6324 179 76.4191 179C75.7524 179 75.1657 178.92 74.6591 178.76C74.1524 178.6 73.7257 178.293 73.3791 177.84C73.0591 177.36 72.7657 176.72 72.4991 175.92C72.1257 174.773 71.7391 173.613 71.3391 172.44C70.9657 171.267 70.5791 170.08 70.1791 168.88C69.7791 167.653 69.3791 166.44 68.9791 165.24C68.6057 164.04 68.2324 162.867 67.8591 161.72H67.1391C66.9257 161.72 66.7124 161.72 66.4991 161.72C66.2857 161.72 66.0591 161.72 65.8191 161.72C65.5791 161.72 65.3257 161.72 65.0591 161.72C64.9257 161.72 64.8324 161.68 64.7791 161.6C64.7257 161.52 64.7124 161.413 64.7391 161.28C64.8457 160.853 64.9524 160.427 65.0591 160C65.1657 159.573 65.2724 159.147 65.3791 158.72C65.4857 158.293 65.5924 157.907 65.6991 157.56ZM71.3791 171H70.1791C69.4857 172.68 68.9124 174.067 68.4591 175.16C68.0057 176.227 67.5524 177.053 67.0991 177.64C66.6724 178.227 66.1791 178.64 65.6191 178.88C65.0857 179.12 64.4057 179.267 63.5791 179.32C62.7524 179.373 61.6991 179.4 60.4191 179.4C60.2591 179.4 60.1391 179.347 60.0591 179.24C59.9791 179.16 59.9524 179.04 59.9791 178.88C60.0591 178.587 60.1657 178.227 60.2991 177.8C60.4057 177.347 60.5124 176.88 60.6191 176.4C60.7524 175.92 60.8724 175.467 60.9791 175.04H61.2991C61.4591 175.04 61.6457 175.04 61.8591 175.04C62.0724 175.04 62.3257 175.04 62.6191 175.04C62.9657 175.04 63.2591 174.973 63.4991 174.84C63.7657 174.707 64.0324 174.48 64.2991 174.16C64.5391 173.893 64.8591 173.533 65.2591 173.08C65.6591 172.627 66.1257 172.107 66.6591 171.52C67.1924 170.907 67.7791 170.227 68.4191 169.48C69.0857 168.733 69.7791 167.933 70.4991 167.08L71.3791 171ZM73.3791 165.48H74.5791C75.2724 163.8 75.8457 162.44 76.2991 161.4C76.7791 160.333 77.2191 159.507 77.6191 158.92C78.0191 158.333 78.4724 157.92 78.9791 157.68C79.5124 157.413 80.1791 157.267 80.9791 157.24C81.7791 157.187 82.8057 157.16 84.0591 157.16C84.2191 157.16 84.3391 157.213 84.4191 157.32C84.4991 157.427 84.5257 157.547 84.4991 157.68C84.4191 157.947 84.3124 158.307 84.1791 158.76C84.0724 159.213 83.9524 159.68 83.8191 160.16C83.7124 160.613 83.6057 161.067 83.4991 161.52H83.1791C83.0457 161.52 82.8991 161.52 82.7391 161.52C82.6057 161.52 82.3924 161.52 82.0991 161.52C81.7524 161.52 81.4591 161.587 81.2191 161.72C80.9791 161.853 80.7124 162.08 80.4191 162.4C80.1791 162.667 79.8591 163.027 79.4591 163.48C79.0857 163.933 78.6191 164.467 78.0591 165.08C77.5257 165.693 76.9391 166.373 76.2991 167.12C75.6857 167.84 75.0057 168.6 74.2591 169.4L73.3791 165.48ZM89.5234 157.56C90.8568 157.56 92.1501 157.56 93.4034 157.56C94.6834 157.56 95.9501 157.56 97.2034 157.56C98.4834 157.56 99.7768 157.56 101.083 157.56C101.163 157.56 101.23 157.573 101.283 157.6C101.337 157.627 101.377 157.68 101.403 157.76C101.43 157.813 101.43 157.893 101.403 158C101.083 159.253 100.763 160.507 100.443 161.76C100.123 162.987 99.8168 164.24 99.5234 165.52C99.2301 166.773 98.9234 168.027 98.6034 169.28C98.3101 170.533 97.9901 171.787 97.6434 173.04C97.5634 173.413 97.5101 173.707 97.4834 173.92C97.4834 174.133 97.5634 174.32 97.7234 174.48C97.8568 174.587 98.0168 174.667 98.2034 174.72C98.4168 174.773 98.6968 174.8 99.0434 174.8C99.7901 174.8 100.63 174.8 101.563 174.8C102.523 174.8 103.363 174.8 104.083 174.8H104.803C104.67 175.413 104.523 176.04 104.363 176.68C104.203 177.32 104.043 177.947 103.883 178.56C103.857 178.72 103.79 178.84 103.683 178.92C103.577 178.973 103.457 179 103.323 179C103.243 179 102.923 179 102.363 179C101.803 179 101.15 179 100.403 179C99.6568 179 98.9368 179 98.2434 179C96.9634 179 95.9101 178.84 95.0834 178.52C94.2834 178.2 93.6834 177.76 93.2834 177.2C92.9101 176.613 92.6968 175.947 92.6434 175.2C92.5901 174.453 92.6701 173.667 92.8834 172.84C93.1234 171.907 93.3501 170.973 93.5634 170.04C93.8034 169.107 94.0301 168.187 94.2434 167.28C94.4834 166.373 94.7234 165.467 94.9634 164.56C95.2034 163.627 95.4301 162.693 95.6434 161.76H94.8034C94.1368 161.76 93.4701 161.76 92.8034 161.76C92.1634 161.76 91.5234 161.76 90.8834 161.76C90.2701 161.76 89.6168 161.76 88.9234 161.76C88.8168 161.76 88.7234 161.733 88.6434 161.68C88.5901 161.6 88.5768 161.48 88.6034 161.32C88.7634 160.707 88.9234 160.08 89.0834 159.44C89.2434 158.8 89.3901 158.173 89.5234 157.56ZM98.4034 147.52C98.8834 147.52 99.3634 147.52 99.8434 147.52C100.35 147.52 100.857 147.52 101.363 147.52C101.87 147.52 102.363 147.52 102.843 147.52C103.35 147.52 103.83 147.52 104.283 147.52C104.417 147.52 104.51 147.56 104.563 147.64C104.643 147.72 104.657 147.827 104.603 147.96L103.443 152.68C102.963 152.68 102.47 152.68 101.963 152.68C101.483 152.68 100.99 152.68 100.483 152.68C99.9768 152.68 99.4701 152.68 98.9634 152.68C98.4834 152.68 98.0168 152.68 97.5634 152.68C97.4301 152.68 97.3368 152.64 97.2834 152.56C97.2301 152.48 97.2168 152.373 97.2434 152.24L98.4034 147.52ZM123.748 157.12C125.161 157.12 126.374 157.24 127.388 157.48C128.401 157.72 129.214 158.013 129.828 158.36C130.468 158.68 130.908 158.947 131.148 159.16C131.201 159.213 131.228 159.28 131.228 159.36C131.228 159.413 131.214 159.48 131.188 159.56L129.708 165.44C129.708 165.493 129.681 165.56 129.628 165.64C129.574 165.693 129.508 165.733 129.428 165.76C129.348 165.787 129.254 165.8 129.148 165.8C128.508 165.8 127.854 165.8 127.188 165.8C126.548 165.8 125.908 165.8 125.268 165.8L125.348 165.4C125.481 164.813 125.614 164.213 125.748 163.6C125.908 162.987 126.054 162.427 126.188 161.92C125.788 161.733 125.348 161.6 124.868 161.52C124.388 161.413 123.828 161.36 123.188 161.36C122.148 161.36 121.201 161.533 120.348 161.88C119.521 162.227 118.828 162.76 118.268 163.48C117.708 164.2 117.281 165.147 116.988 166.32L116.148 169.68C115.881 170.64 115.788 171.48 115.868 172.2C115.948 172.893 116.201 173.467 116.628 173.92C117.001 174.267 117.508 174.533 118.148 174.72C118.788 174.907 119.574 175 120.508 175C121.334 175 122.108 174.947 122.828 174.84C123.574 174.707 124.294 174.533 124.988 174.32C125.681 174.08 126.374 173.813 127.068 173.52H127.788C127.628 174.187 127.454 174.853 127.268 175.52C127.108 176.16 126.934 176.827 126.748 177.52C126.721 177.573 126.694 177.627 126.668 177.68C126.668 177.733 126.628 177.8 126.548 177.88C126.334 178.093 125.934 178.333 125.348 178.6C124.761 178.84 124.001 179.04 123.068 179.2C122.134 179.36 121.041 179.44 119.788 179.44C118.001 179.44 116.481 179.2 115.228 178.72C113.974 178.24 112.988 177.547 112.268 176.64C111.574 175.733 111.134 174.653 110.948 173.4C110.788 172.147 110.908 170.733 111.308 169.16L112.188 165.72C112.694 163.747 113.481 162.133 114.548 160.88C115.614 159.6 116.921 158.653 118.468 158.04C120.041 157.427 121.801 157.12 123.748 157.12ZM146.732 157.12C148.172 157.12 149.426 157.36 150.492 157.84C151.586 158.293 152.466 158.96 153.132 159.84C153.799 160.693 154.226 161.747 154.412 163C154.626 164.227 154.559 165.587 154.212 167.08L153.452 170.32C152.999 172.293 152.292 173.96 151.332 175.32C150.399 176.68 149.212 177.707 147.772 178.4C146.332 179.093 144.626 179.44 142.652 179.44C141.159 179.44 139.839 179.213 138.692 178.76C137.546 178.28 136.612 177.6 135.892 176.72C135.199 175.813 134.759 174.747 134.572 173.52C134.386 172.293 134.466 170.933 134.812 169.44L135.652 166.2C136.159 164.173 136.892 162.493 137.852 161.16C138.812 159.827 140.026 158.827 141.492 158.16C142.986 157.467 144.732 157.12 146.732 157.12ZM146.132 161.24C145.119 161.24 144.226 161.427 143.452 161.8C142.706 162.173 142.079 162.72 141.572 163.44C141.092 164.16 140.719 165.053 140.452 166.12L139.452 170.08C139.239 170.933 139.159 171.733 139.212 172.48C139.292 173.2 139.559 173.8 140.012 174.28C140.306 174.6 140.692 174.84 141.172 175C141.679 175.16 142.279 175.24 142.972 175.24C143.959 175.24 144.812 175.053 145.532 174.68C146.252 174.28 146.852 173.72 147.332 173C147.839 172.28 148.226 171.413 148.492 170.4L149.492 166.52C149.732 165.64 149.812 164.813 149.732 164.04C149.679 163.267 149.412 162.64 148.932 162.16C148.639 161.867 148.266 161.64 147.812 161.48C147.359 161.32 146.799 161.24 146.132 161.24ZM162.237 157.56C162.823 157.56 163.383 157.56 163.917 157.56C164.45 157.56 164.97 157.56 165.477 157.56C165.983 157.56 166.463 157.56 166.917 157.56C166.997 157.56 167.063 157.587 167.117 157.64C167.17 157.667 167.21 157.72 167.237 157.8C167.263 157.853 167.263 157.92 167.237 158C166.81 159.76 166.383 161.52 165.957 163.28C165.53 165.013 165.09 166.76 164.637 168.52C164.21 170.253 163.77 172 163.317 173.76C162.89 175.52 162.45 177.267 161.997 179C161.49 179 160.97 179 160.437 179C159.93 179 159.41 179 158.877 179C158.37 179 157.85 179 157.317 179C157.263 179 157.21 178.987 157.157 178.96C157.103 178.933 157.063 178.907 157.037 178.88C157.01 178.827 156.983 178.773 156.957 178.72C156.957 178.667 156.97 178.613 156.997 178.56C157.477 176.667 157.957 174.773 158.437 172.88C158.917 170.987 159.383 169.093 159.837 167.2C160.317 165.307 160.797 163.413 161.277 161.52C161.49 160.72 161.677 159.987 161.837 159.32C161.997 158.627 162.13 158.04 162.237 157.56ZM174.197 157.12C175.05 157.12 175.783 157.267 176.397 157.56C177.01 157.827 177.503 158.24 177.877 158.8C178.25 159.333 178.477 159.973 178.557 160.72C178.637 161.467 178.57 162.307 178.357 163.24C178.037 164.44 177.73 165.627 177.437 166.8C177.143 167.973 176.837 169.147 176.517 170.32C176.223 171.493 175.93 172.693 175.637 173.92C175.583 174.107 175.557 174.267 175.557 174.4C175.583 174.533 175.637 174.64 175.717 174.72C175.797 174.773 175.877 174.813 175.957 174.84C176.063 174.867 176.197 174.88 176.357 174.88C176.437 174.88 176.503 174.88 176.557 174.88C176.637 174.88 176.703 174.88 176.757 174.88C176.837 174.88 176.903 174.88 176.957 174.88H177.677C177.543 175.493 177.397 176.107 177.237 176.72C177.103 177.333 176.943 177.947 176.757 178.56C176.73 178.693 176.663 178.8 176.557 178.88C176.45 178.96 176.33 179 176.197 179C176.063 179 175.757 179 175.277 179C174.823 179 174.41 179 174.037 179C172.97 179 172.13 178.773 171.517 178.32C170.93 177.84 170.557 177.213 170.397 176.44C170.263 175.64 170.317 174.747 170.557 173.76C170.85 172.64 171.117 171.56 171.357 170.52C171.623 169.453 171.89 168.4 172.157 167.36C172.423 166.293 172.703 165.173 172.997 164C173.21 163.227 173.183 162.653 172.917 162.28C172.65 161.907 172.183 161.72 171.517 161.72C171.01 161.72 170.49 161.813 169.957 162C169.423 162.16 168.877 162.413 168.317 162.76C167.757 163.08 167.17 163.507 166.557 164.04C165.97 164.547 165.343 165.16 164.677 165.88L165.557 161.08H167.237C167.983 160.2 168.73 159.467 169.477 158.88C170.25 158.293 171.023 157.853 171.797 157.56C172.597 157.267 173.397 157.12 174.197 157.12ZM185.461 157.56C186.794 157.56 188.088 157.56 189.341 157.56C190.621 157.56 191.888 157.56 193.141 157.56C194.421 157.56 195.714 157.56 197.021 157.56C197.101 157.56 197.168 157.573 197.221 157.6C197.274 157.627 197.314 157.68 197.341 157.76C197.368 157.813 197.368 157.893 197.341 158C197.021 159.253 196.701 160.507 196.381 161.76C196.061 162.987 195.754 164.24 195.461 165.52C195.168 166.773 194.861 168.027 194.541 169.28C194.248 170.533 193.928 171.787 193.581 173.04C193.501 173.413 193.448 173.707 193.421 173.92C193.421 174.133 193.501 174.32 193.661 174.48C193.794 174.587 193.954 174.667 194.141 174.72C194.354 174.773 194.634 174.8 194.981 174.8C195.728 174.8 196.568 174.8 197.501 174.8C198.461 174.8 199.301 174.8 200.021 174.8H200.741C200.608 175.413 200.461 176.04 200.301 176.68C200.141 177.32 199.981 177.947 199.821 178.56C199.794 178.72 199.728 178.84 199.621 178.92C199.514 178.973 199.394 179 199.261 179C199.181 179 198.861 179 198.301 179C197.741 179 197.088 179 196.341 179C195.594 179 194.874 179 194.181 179C192.901 179 191.848 178.84 191.021 178.52C190.221 178.2 189.621 177.76 189.221 177.2C188.848 176.613 188.634 175.947 188.581 175.2C188.528 174.453 188.608 173.667 188.821 172.84C189.061 171.907 189.288 170.973 189.501 170.04C189.741 169.107 189.968 168.187 190.181 167.28C190.421 166.373 190.661 165.467 190.901 164.56C191.141 163.627 191.368 162.693 191.581 161.76H190.741C190.074 161.76 189.408 161.76 188.741 161.76C188.101 161.76 187.461 161.76 186.821 161.76C186.208 161.76 185.554 161.76 184.861 161.76C184.754 161.76 184.661 161.733 184.581 161.68C184.528 161.6 184.514 161.48 184.541 161.32C184.701 160.707 184.861 160.08 185.021 159.44C185.181 158.8 185.328 158.173 185.461 157.56ZM194.341 147.52C194.821 147.52 195.301 147.52 195.781 147.52C196.288 147.52 196.794 147.52 197.301 147.52C197.808 147.52 198.301 147.52 198.781 147.52C199.288 147.52 199.768 147.52 200.221 147.52C200.354 147.52 200.448 147.56 200.501 147.64C200.581 147.72 200.594 147.827 200.541 147.96L199.381 152.68C198.901 152.68 198.408 152.68 197.901 152.68C197.421 152.68 196.928 152.68 196.421 152.68C195.914 152.68 195.408 152.68 194.901 152.68C194.421 152.68 193.954 152.68 193.501 152.68C193.368 152.68 193.274 152.64 193.221 152.56C193.168 152.48 193.154 152.373 193.181 152.24L194.341 147.52ZM219.685 157.12C221.099 157.12 222.312 157.24 223.325 157.48C224.339 157.72 225.152 158.013 225.765 158.36C226.405 158.68 226.845 158.947 227.085 159.16C227.139 159.213 227.165 159.28 227.165 159.36C227.165 159.413 227.152 159.48 227.125 159.56L225.645 165.44C225.645 165.493 225.619 165.56 225.565 165.64C225.512 165.693 225.445 165.733 225.365 165.76C225.285 165.787 225.192 165.8 225.085 165.8C224.445 165.8 223.792 165.8 223.125 165.8C222.485 165.8 221.845 165.8 221.205 165.8L221.285 165.4C221.419 164.813 221.552 164.213 221.685 163.6C221.845 162.987 221.992 162.427 222.125 161.92C221.725 161.733 221.285 161.6 220.805 161.52C220.325 161.413 219.765 161.36 219.125 161.36C218.085 161.36 217.139 161.533 216.285 161.88C215.459 162.227 214.765 162.76 214.205 163.48C213.645 164.2 213.219 165.147 212.925 166.32L212.085 169.68C211.819 170.64 211.725 171.48 211.805 172.2C211.885 172.893 212.139 173.467 212.565 173.92C212.939 174.267 213.445 174.533 214.085 174.72C214.725 174.907 215.512 175 216.445 175C217.272 175 218.045 174.947 218.765 174.84C219.512 174.707 220.232 174.533 220.925 174.32C221.619 174.08 222.312 173.813 223.005 173.52H223.725C223.565 174.187 223.392 174.853 223.205 175.52C223.045 176.16 222.872 176.827 222.685 177.52C222.659 177.573 222.632 177.627 222.605 177.68C222.605 177.733 222.565 177.8 222.485 177.88C222.272 178.093 221.872 178.333 221.285 178.6C220.699 178.84 219.939 179.04 219.005 179.2C218.072 179.36 216.979 179.44 215.725 179.44C213.939 179.44 212.419 179.2 211.165 178.72C209.912 178.24 208.925 177.547 208.205 176.64C207.512 175.733 207.072 174.653 206.885 173.4C206.725 172.147 206.845 170.733 207.245 169.16L208.125 165.72C208.632 163.747 209.419 162.133 210.485 160.88C211.552 159.6 212.859 158.653 214.405 158.04C215.979 157.427 217.739 157.12 219.685 157.12Z" fill="black"/>
</svg>
