<svg width="85" height="85" viewBox="0 0 85 85" fill="none" xmlns="http://www.w3.org/2000/svg">
<path d="M43.8495 0.198773C43.5861 0.225104 43.336 0.317265 43.1122 0.462087C43.1122 0.462087 32.4611 7.36751 21.8364 16.7349C16.524 21.4153 11.2314 26.708 7.19609 32.1651C3.1608 37.6223 0.303835 43.2573 0.349915 48.754C0.349915 51.3937 1.44925 53.4936 2.9304 54.9155C4.41154 56.3374 6.21524 57.1405 7.88071 57.8646C9.54617 58.5887 11.08 59.247 12.0411 59.9185C13.0022 60.5899 13.3576 60.9915 13.3576 62.025C13.3576 62.4266 12.9693 63.3021 12.1464 64.3422C11.3235 65.3823 10.1715 66.5803 8.93397 67.8706C6.45223 70.4576 3.56235 73.466 3.56235 77.4026C3.56235 79.2589 4.31938 80.8322 5.40555 81.8789C6.49172 82.9256 7.85438 83.4654 9.09195 83.8274C11.5737 84.5581 13.8843 84.4594 13.8843 84.4594C14.8125 84.4331 15.5432 83.6497 15.5168 82.7215C15.4905 81.7933 14.7071 81.0626 13.779 81.089C13.779 81.089 11.8568 81.1482 10.0399 80.615C9.13145 80.3451 8.30201 79.9106 7.77538 79.4038C7.24875 78.8969 6.93278 78.4163 6.93278 77.4026C6.93278 75.2763 8.94713 72.7024 11.3565 70.1878C12.5611 68.9304 13.8184 67.6797 14.8322 66.396C15.846 65.1124 16.7281 63.73 16.7281 62.025C16.7281 59.8527 15.4115 58.1609 13.9369 57.1274C12.4624 56.0938 10.7772 55.4948 9.19728 54.8102C7.61739 54.1256 6.1955 53.3488 5.24756 52.4404C4.29963 51.5319 3.72034 50.5774 3.72034 48.754C3.72034 48.7342 3.72034 48.721 3.72034 48.7013C3.68084 44.4224 6.07042 39.3207 9.8819 34.1663C13.6934 29.012 18.9004 23.851 24.1009 19.2627C34.5018 10.0928 44.9027 3.30588 44.9027 3.30588C45.5676 2.89116 45.8572 2.07489 45.6071 1.33761C45.3569 0.593745 44.6262 0.126361 43.8495 0.198773ZM77.5537 22.1065C75.7829 22.1065 74.0055 22.7582 72.6561 24.1077L71.4975 25.319L81.2401 35.0616L82.4514 33.903C85.1503 31.204 85.1503 26.8067 82.4514 24.1077C81.1019 22.7582 79.3245 22.1065 77.5537 22.1065ZM69.4436 27.3202L24.4695 72.5049C24.2325 72.7353 24.068 73.025 23.9956 73.3475L22.1523 82.4582C22.0602 82.998 22.2313 83.551 22.6197 83.9393C23.0081 84.3277 23.5611 84.4989 24.1009 84.4067L33.2116 82.5635C33.5341 82.4911 33.8238 82.3265 34.0542 82.0896L79.2389 37.1155L76.8691 34.7456L32.211 79.2458L27.3133 74.3481L71.8134 29.69L69.4436 27.3202Z" fill="black"/>
</svg>
